<?xml version="1.0" encoding="UTF-8"?>
<svg width="140px" height="70px" viewBox="0 0 140 70" version="1.1" xmlns="http://www.w3.org/2000/svg" xmlns:xlink="http://www.w3.org/1999/xlink">
    <!-- Generator: Sketch 42 (36781) - http://www.bohemiancoding.com/sketch -->
    <title>ok</title>
    <desc>Created with Sketch.</desc>
    <defs></defs>
    <g id="svg" stroke="none" stroke-width="1" fill="none" fill-rule="evenodd">
        <g id="ok">
            <path d="M23.8936941,24 C29.9429814,24 33.7308529,28.4864198 33.7308529,35.5 C33.7308529,42.4851852 29.9429814,47 23.8936941,47 C17.8444069,47 14,42.5135802 14,35.4716049 C14,28.5148148 17.8161392,24 23.8936941,24 Z M23.8936941,26.4419753 C19.512201,26.4419753 16.7985021,30.0197531 16.7985021,35.5 C16.7985021,40.9802469 19.5687364,44.5296296 23.8936941,44.5296296 C28.3034549,44.5296296 30.9323508,41.037037 30.9323508,35.3296296 C30.9323508,29.962963 28.1903842,26.4419753 23.8936941,26.4419753 Z M42.5221068,35.6893004 L52.6419425,26.4135802 C52.8398164,26.2148148 52.9246195,25.9308642 52.9246195,25.6469136 C52.9246195,25.2493827 52.7550133,24.8234568 52.4440686,24.5679012 C52.1896593,24.3407407 51.850447,24.2271605 51.5112346,24.2271605 C51.2002899,24.2271605 50.8610776,24.3407407 50.634936,24.5962963 L40.4020295,34.3831276 L40.4020295,25.4197531 C40.4020295,24.6246914 39.8366755,24.2555556 39.0734477,24.2555556 C38.2819522,24.2555556 37.7165982,24.6246914 37.7165982,25.4197531 L37.7165982,45.5518519 C37.7165982,46.3185185 38.2819522,46.7160494 39.0734477,46.7160494 C39.8366755,46.7160494 40.4020295,46.3185185 40.4020295,45.5518519 L40.4020295,37.790535 L40.4679805,37.6675059 L50.5407103,46.2617284 C50.7668519,46.5740741 51.1625997,46.7444444 51.5300797,46.7444444 C51.8410244,46.7444444 52.1237014,46.6592593 52.3781107,46.4604938 C52.7455907,46.1765432 53,45.7506173 53,45.3246914 C53,45.0691358 52.9151969,44.8135802 52.7455907,44.5864198 L42.5221068,35.6893004 Z" id="OK" fill="#362736"></path>
            <path d="M93.8936941,24 C99.9429814,24 103.730853,28.4864198 103.730853,35.5 C103.730853,42.4851852 99.9429814,47 93.8936941,47 C87.8444069,47 84,42.5135802 84,35.4716049 C84,28.5148148 87.8161392,24 93.8936941,24 Z M93.8936941,26.4419753 C89.512201,26.4419753 86.7985021,30.0197531 86.7985021,35.5 C86.7985021,40.9802469 89.5687364,44.5296296 93.8936941,44.5296296 C98.3034549,44.5296296 100.932351,41.037037 100.932351,35.3296296 C100.932351,29.962963 98.1903842,26.4419753 93.8936941,26.4419753 Z M112.522107,35.6893004 L122.641942,26.4135802 C122.839816,26.2148148 122.924619,25.9308642 122.924619,25.6469136 C122.924619,25.2493827 122.755013,24.8234568 122.444069,24.5679012 C122.189659,24.3407407 121.850447,24.2271605 121.511235,24.2271605 C121.20029,24.2271605 120.861078,24.3407407 120.634936,24.5962963 L110.402029,34.3831276 L110.402029,25.4197531 C110.402029,24.6246914 109.836676,24.2555556 109.073448,24.2555556 C108.281952,24.2555556 107.716598,24.6246914 107.716598,25.4197531 L107.716598,45.5518519 C107.716598,46.3185185 108.281952,46.7160494 109.073448,46.7160494 C109.836676,46.7160494 110.402029,46.3185185 110.402029,45.5518519 L110.402029,37.790535 L110.467981,37.6675059 L120.54071,46.2617284 C120.766852,46.5740741 121.1626,46.7444444 121.53008,46.7444444 C121.841024,46.7444444 122.123701,46.6592593 122.378111,46.4604938 C122.745591,46.1765432 123,45.7506173 123,45.3246914 C123,45.0691358 122.915197,44.8135802 122.745591,44.5864198 L112.522107,35.6893004 Z" id="OK-Copy" fill="#DFD7E0"></path>
        </g>
    </g>
</svg>